<mxfile host="app.diagrams.net" modified="2023-07-24T02:40:57.141Z" agent="Mozilla/5.0 (Windows NT 10.0; Win64; x64) AppleWebKit/537.36 (KHTML, like Gecko) Chrome/113.0.0.0 Safari/537.36" version="21.6.2" etag="p5FRnJwUVKpBwVs_l100" type="github">
  <diagram name="第 1 页" id="tr2shF4XwSsPkP_mc5b3">
    <mxGraphModel>
      <root>
        <mxCell id="0" />
        <mxCell id="1" parent="0" />
      </root>
    </mxGraphModel>
  </diagram>
</mxfile>
